<?xml version="1.0" encoding="utf-8"?>
<!-- Generator: Adobe Illustrator 16.0.0, SVG Export Plug-In . SVG Version: 6.00 Build 0)  -->
<!DOCTYPE svg PUBLIC "-//W3C//DTD SVG 1.1//EN" "http://www.w3.org/Graphics/SVG/1.1/DTD/svg11.dtd">
<svg version="1.1" id="Layer_1" xmlns="http://www.w3.org/2000/svg" xmlns:xlink="http://www.w3.org/1999/xlink" x="0px" y="0px"
	 width="354.297px" height="500px" viewBox="572.852 0 354.297 500" enable-background="new 572.852 0 354.297 500"
	 xml:space="preserve">
<title>HTML5 Logo</title>
<path d="M605.859,0h22.461v22.266h20.703V0h22.461v67.383h-22.461V44.922h-20.508v22.461h-22.656 M701.172,22.461h-19.824V0h62.207
	v22.461h-19.922v44.922h-22.461 M753.418,0h23.535l14.453,23.73L805.859,0h23.535v67.383h-22.461V33.984l-15.723,24.219
	l-15.723-24.219v33.398h-22.07 M840.527,0h22.461v45.117h31.836v22.266h-54.297"/>
<path fill="#E44D26" d="M605.078,459.961L572.852,98.242h354.297l-32.227,361.523L749.707,500"/>
<path fill="#F16529" d="M750,469.238V127.93h144.824l-27.637,308.594"/>
<path fill="#EBEBEB" d="M638.672,172.168H750v44.336h-62.695l4.102,45.41H750v44.238h-99.219 M652.734,328.418h44.531l3.125,35.449
	L750,377.148v46.289l-91.016-25.391"/>
<path fill="#FFFFFF" d="M860.938,172.168H749.805v44.336h107.031 M852.832,261.914H749.805v44.336h54.688l-5.176,57.617
	l-49.512,13.281v46.094l90.82-25.195"/>
</svg>
